<svg width="143" height="31" viewBox="0 0 143 31" fill="none" xmlns="http://www.w3.org/2000/svg">
<path d="M82.676 18.7862L91.2829 10.4276H82.8416V6.4552H97.2415V10.4276L88.6347 18.7862H97.3243V22.7586H82.5933V18.7862H82.676Z" fill="#0033A0"/>
<path d="M81.0207 1.07593H76.5518V5.1311H81.0207V1.07593Z" fill="#0033A0"/>
<path d="M81.0207 6.4552H76.5518V22.7586H81.0207V6.4552Z" fill="#0033A0"/>
<path d="M22.5105 14.5654C22.5105 9.84816 26.2346 6.12402 30.9518 6.12402C35.6691 6.12402 39.3933 9.93092 39.3933 14.5654C39.3933 19.2826 35.6691 23.0068 30.9518 23.0068C26.3174 23.0895 22.5105 19.2826 22.5105 14.5654ZM35.0898 14.5654C35.0898 12.2482 33.2691 10.3447 30.9518 10.3447C28.6346 10.3447 26.8966 12.2482 26.8966 14.5654C26.8966 16.8826 28.6346 18.7861 30.9518 18.7861C33.2691 18.7861 35.0898 16.8826 35.0898 14.5654Z" fill="#0033A0"/>
<path d="M59.5862 6.45506H64.0552V8.27575C65.131 6.95161 66.7035 6.12402 68.5242 6.12402C72.331 6.12402 74.6483 8.60678 74.6483 12.8275V22.7585H70.0966V13.4068C70.0966 11.2551 69.1035 9.93092 67.1173 9.93092C65.4621 9.93092 64.0552 11.0895 64.0552 13.8206V22.7585H59.5862V6.45506Z" fill="#0033A0"/>
<path d="M97.6553 14.5654C97.6553 8.7723 101.876 6.12402 105.6 6.12402C107.752 6.12402 109.407 6.86885 110.483 8.02747V6.45506H114.952V22.7585H110.483V20.9378C109.407 22.1792 107.669 23.0895 105.6 23.0895C102.042 23.0895 97.6553 20.3585 97.6553 14.5654ZM110.566 14.5654C110.566 12.1654 108.828 10.1792 106.428 10.1792C103.945 10.1792 102.042 11.9999 102.042 14.5654C102.042 17.0482 103.945 18.9516 106.428 18.9516C108.745 18.9516 110.566 16.9654 110.566 14.5654Z" fill="#0033A0"/>
<path d="M116.69 6.45506H121.159V8.27575C122.235 6.95161 123.807 6.12402 125.628 6.12402C129.435 6.12402 131.752 8.60678 131.752 12.8275V22.7585H127.2V13.4068C127.2 11.2551 126.207 9.93092 124.221 9.93092C122.566 9.93092 121.159 11.0895 121.159 13.8206V22.7585H116.69V6.45506Z" fill="#0033A0"/>
<path d="M82.6758 22.7586V18.7862L91.2827 10.4276H82.8414V6.4552H97.2413V10.4276L88.6345 18.7862" fill="#0033A0"/>
<path d="M17.7931 14.4828L17.7104 14.6483C16.469 17.2138 14.2345 18.7034 11.5035 18.7034C7.53105 18.7034 4.46899 15.5586 4.46899 11.5862C4.46899 7.53103 7.53103 4.46897 11.5862 4.46897C14.2345 4.46897 16.2207 5.71034 17.5449 8.11034L17.6276 8.27586L21.6001 5.71035L21.5172 5.62759C19.4483 2.15172 15.7241 0 11.5862 0C4.96552 0 0 4.96552 0 11.5862C0 18.2897 4.88276 23.1724 11.5862 23.1724C15.8897 23.1724 19.7793 20.7724 21.8483 16.7172L21.931 16.6345L17.7931 14.4828Z" fill="#0033A0"/>
<path d="M40.5518 14.5654C40.5518 8.7723 44.7725 6.12402 48.4967 6.12402C50.6484 6.12402 52.3035 7.03437 53.3793 8.19299V6.45506H57.8483V22.262C57.8483 26.8137 54.9518 30.5378 49.407 30.5378C45.2691 30.5378 42.2069 28.3861 40.9656 25.8206L44.938 23.5861C45.7656 25.2413 47.2552 26.3171 49.4897 26.3171C51.8897 26.3171 53.4622 24.4137 53.4622 22.3447V20.7723C52.3863 22.0137 50.6484 22.924 48.5794 22.924C44.938 23.0895 40.5518 20.3585 40.5518 14.5654ZM53.4622 14.5654C53.4622 12.1654 51.7243 10.1792 49.3243 10.1792C46.8415 10.1792 44.938 11.9999 44.938 14.5654C44.938 17.0482 46.8415 18.9516 49.3243 18.9516C51.6415 18.9516 53.4622 16.9654 53.4622 14.5654Z" fill="#0033A0"/>
<path d="M142.759 10.4277V6.45524H139.697V1.07593H135.228V6.45524H132.497V10.4277H135.228V15.6414C135.228 20.938 136.883 22.6759 142.097 22.6759H142.759V18.538C140.028 18.538 139.697 18.1242 139.697 15.6414V10.4277H142.759Z" fill="#0033A0"/>
</svg>
